<svg width="16" height="15" viewBox="0 0 16 15" fill="none" xmlns="http://www.w3.org/2000/svg">
<path fill-rule="evenodd" clip-rule="evenodd" d="M8.22044 1.75361C8.12626 1.57741 7.87365 1.57741 7.77947 1.75362L1.69783 13.1321C1.60882 13.2987 1.72949 13.5 1.91831 13.5H14.0816C14.2705 13.5 14.3911 13.2987 14.3021 13.1321L8.22044 1.75361ZM6.45658 1.04655C7.11584 -0.186903 8.88408 -0.186904 9.54334 1.04655L15.625 12.4251C16.2481 13.5908 15.4034 15 14.0816 15H1.91831C0.596516 15 -0.248131 13.5908 0.374936 12.4251L6.45658 1.04655ZM8.99996 11C8.99996 11.5523 8.55225 12 7.99996 12C7.44768 12 6.99996 11.5523 6.99996 11C6.99996 10.4477 7.44768 10 7.99996 10C8.55225 10 8.99996 10.4477 8.99996 11ZM8.74996 5.75003C8.74996 5.33582 8.41417 5.00003 7.99996 5.00003C7.58575 5.00003 7.24996 5.33582 7.24996 5.75003V8.25003C7.24996 8.66424 7.58575 9.00003 7.99996 9.00003C8.41417 9.00003 8.74996 8.66424 8.74996 8.25003V5.75003Z" fill="#9A6700"/>
</svg>
