<svg width="34" height="34" viewBox="0 0 34 34" fill="none" xmlns="http://www.w3.org/2000/svg">
<path d="M20.6078 15.7494L14.6312 14.0007C13.9395 13.8014 13.458 13.154 13.458 12.4346C13.458 11.5326 14.1885 10.8021 15.0905 10.8021H18.7595C19.4346 10.8021 20.0986 11.0068 20.652 11.3831C20.9896 11.61 21.4434 11.5547 21.7311 11.2725L23.6569 9.39096C24.0498 9.00912 23.9945 8.37273 23.5573 8.03517C22.2015 6.97267 20.5082 6.38054 18.7705 6.37501V3.71876C18.7705 3.23178 18.3721 2.83334 17.8851 2.83334H16.1143C15.6273 2.83334 15.2289 3.23178 15.2289 3.71876V6.37501H15.0905C11.5654 6.37501 8.73211 9.40203 9.05861 12.9935C9.29103 15.5446 11.239 17.6198 13.696 18.3392L19.3682 19.9994C20.0599 20.2041 20.5414 20.846 20.5414 21.5654C20.5414 22.4675 19.8109 23.1979 18.9089 23.1979H15.2399C14.5648 23.1979 13.9007 22.9932 13.3473 22.6169C13.0098 22.39 12.556 22.4453 12.2682 22.7275L10.3425 24.6091C9.94956 24.9909 10.0049 25.6273 10.4421 25.9649C11.7979 27.0274 13.4912 27.6195 15.2289 27.625V30.2813C15.2289 30.7682 15.6273 31.1667 16.1143 31.1667H17.8851C18.3721 31.1667 18.7705 30.7682 18.7705 30.2813V27.6139C21.3493 27.5641 23.7676 26.0313 24.6198 23.5908C25.8096 20.182 23.8119 16.6846 20.6078 15.7494V15.7494Z" fill="#8D8E8E"/>
</svg>
