<svg width="114" height="37" viewBox="0 0 114 37" fill="none" xmlns="http://www.w3.org/2000/svg">
<path fill-rule="evenodd" clip-rule="evenodd" d="M108.567 18.6667H108.985C108.985 18.6667 113.916 18.75 114 25.0833C114 31.1667 107.899 36.3333 100.711 36.3333C99.5411 36.3333 89.846 36 89.0938 24.4167C87.1716 24.3333 83.912 24 81.154 22.8333C78.3959 29.5833 74.1334 34.9167 71.5425 34.9167C68.9516 34.9167 66.7786 31.5833 65.0235 25.1667L64.8563 24.5C61.5132 30.1667 56.9164 34.8333 54.6598 34.8333C51.9853 34.8333 48.7258 31.75 48.7258 28.8333C48.7258 25.9167 49.6452 18.9167 49.6452 18.9167C49.6452 18.9167 47.2214 19.4167 43.7111 19.9167C43.0425 23.25 39.3651 37 24.9897 37C7.85631 37 0 18.5 0 18.5C1.90123 17.3291 4.26076 14.8713 6.90338 12.1186C12.1603 6.64276 18.5374 0 24.6554 0C33.849 0 37.1085 11.3333 37.1085 11.3333L36.3563 12.5833C36.3563 12.5833 33.3475 8.75 26.4106 8.75C21.1118 8.75 17.0985 13.4971 14.191 16.9363C13.2463 18.0537 12.4183 19.0331 11.7009 19.6667C11.7009 19.6667 18.9721 31.0833 28.4164 31.0833C33.4311 31.0833 38.8636 26.75 41.956 20.1667C36.607 20.9167 29.5865 21.5833 24.6554 21C24.6554 21 24.4047 20.75 24.3211 20.5C24.154 20.1667 24.154 19.8333 24.154 19.8333C41.6217 19.8333 54.7434 12.5833 55.9135 11.8333C55.9971 11.75 56.0806 11.75 56.1642 11.75C57.2898 12.0209 56.7031 15.8501 56.0865 19.8744C55.3753 24.5158 54.6244 29.4167 56.415 29.4167C58.2537 29.4167 61.9311 23.75 64.0205 20.3333C63.2962 16.6667 62.5719 13.2222 62.1694 11.3086C61.9682 10.3519 61.8475 9.77778 61.8475 9.75V9.5L62.0147 9.41667C62.0982 9.33333 65.6921 7.91667 67.9487 7.91667C69.6202 7.91667 70.6232 8.83333 70.6232 10.4167C70.6232 11.4167 70.1217 13.5 69.2024 16C69.7708 21.3139 71.6685 26.2663 72.5837 28.655C72.745 29.0758 72.8757 29.417 72.9633 29.6667L72.9845 29.6418C73.9255 28.5331 76.7369 25.2205 78.3959 21.3333C76.4736 19.8333 75.5543 17.75 75.5543 15.25C75.5543 11.0833 77.8944 8.91667 80.151 8.91667C81.739 8.91667 83.4106 10 83.4106 12.4167C83.4106 14.1667 83.1598 16.0833 82.6584 18.1667C83.9956 19.4167 86.1686 20.75 89.0938 20.8333C89.6789 14.8333 92.6041 6.25 98.371 6.25C104.472 6.25 105.392 11.3333 105.392 14.4167C105.392 18.6667 101.547 22.3333 95.6129 23.75C95.7801 28.5833 97.1173 32.8333 100.711 32.8333C102.968 32.8333 104.806 31.9167 106.227 30.1667C108.735 27.1667 109.32 22.3333 108.651 19.0833L108.567 18.6667ZM95.7801 19.5832C100.126 17.6666 100.21 13.9166 100.21 13.8333C100.21 11.4166 99.2068 9.99992 98.2875 9.91658C97.4517 9.91658 96.198 14.4999 95.7801 19.5832Z" fill="#66BB6A"/>
<path d="M50.063 9.25C50.063 9.41666 50.1466 9.5 50.3137 9.58333C53.7404 10.0833 55.997 9 55.997 3.5C55.997 -1.66667 50.648 2.41667 49.6451 3.16667C49.5615 3.25 49.5615 3.33333 49.5615 3.5C50.4809 5.5 50.2301 8.41666 50.063 9.25Z" fill="#66BB6A"/>
<mask id="mask0_19_5730" style="mask-type:alpha" maskUnits="userSpaceOnUse" x="89" y="23" width="9" height="9">
<path fill-rule="evenodd" clip-rule="evenodd" d="M92.3535 24.3346C90.682 24.5013 89.094 24.418 89.094 24.418C89.3447 27.7513 90.2171 29.9987 91.4707 31.7487L97.5719 31.2487C96.2765 29.5612 95.7345 27.0352 95.6131 23.75C95.6131 23.75 93.9415 24.168 92.3535 24.3346Z" fill="white"/>
</mask>
<g mask="url(#mask0_19_5730)">
<path d="M98.4546 31.6667L97.4517 22.75L88.1746 23.8333L89.1775 32.75L98.4546 31.6667Z" fill="url(#paint0_linear_19_5730)"/>
</g>
<mask id="mask1_19_5730" style="mask-type:alpha" maskUnits="userSpaceOnUse" x="89" y="13" width="8" height="8">
<path d="M95.7803 19.5849C94.4874 20.3787 90.4728 20.9414 89.094 20.8334C89.2962 18.9641 89.7004 16.3814 90.7655 13.5834C91.579 13.3915 95.2793 13.3858 96.4008 14.9666C96.1589 16.2587 96.0528 17.054 95.9653 17.7515C95.8929 18.3495 95.8393 18.8757 95.7803 19.5849Z" fill="white"/>
</mask>
<g mask="url(#mask1_19_5730)">
<rect x="89.0105" y="13.4961" width="7.39031" height="7.35061" fill="url(#paint1_linear_19_5730)"/>
</g>
<mask id="mask2_19_5730" style="mask-type:alpha" maskUnits="userSpaceOnUse" x="58" y="20" width="7" height="11">
<path fill-rule="evenodd" clip-rule="evenodd" d="M58.8818 27.6698C59.2997 28.6698 59.7516 29.8307 60.253 30.8307C61.0758 29.8834 61.9801 28.8222 63.0477 27.289C63.6775 26.3845 64.3331 25.3431 64.8563 24.4999L64.0238 20.3293C62.6853 22.5982 60.4097 26.0455 58.8818 27.6698Z" fill="white"/>
</mask>
<g mask="url(#mask2_19_5730)">
<path d="M59.4238 32.6667L68.0323 29.75L64.2713 18.5L55.6628 21.4167L59.4238 32.6667Z" fill="url(#paint2_linear_19_5730)"/>
</g>
<mask id="mask3_19_5730" style="mask-type:alpha" maskUnits="userSpaceOnUse" x="74" y="21" width="8" height="10">
<path fill-rule="evenodd" clip-rule="evenodd" d="M74.4678 27.8294C75.0528 28.6627 76.1393 29.75 76.8915 30.5833C77.5042 29.7349 78.1606 28.7476 78.7903 27.6471C79.6954 26.0653 80.5308 24.3283 81.154 22.8333C81.154 22.8333 80.3313 22.5461 79.6587 22.1588C78.9862 21.7714 78.3985 21.3352 78.3985 21.3352C77.2167 24.037 75.6823 26.2734 74.4678 27.8294Z" fill="white"/>
</mask>
<g mask="url(#mask3_19_5730)">
<path d="M79.5659 33.4168L85.1656 23.5001L76.1393 18.4167L70.5396 28.2501L79.5659 33.4168Z" fill="url(#paint3_linear_19_5730)"/>
</g>
<mask id="mask4_19_5730" style="mask-type:alpha" maskUnits="userSpaceOnUse" x="68" y="10" width="3" height="6">
<path fill-rule="evenodd" clip-rule="evenodd" d="M68.45 10.8333C68.45 10.8333 68.5335 12.3332 69.2022 15.9999C70.1215 13.4166 70.6151 11.4329 70.6151 10.4329C70.6151 10.3495 70.6151 10.2662 70.6151 10.1829L68.45 10.8333Z" fill="white"/>
</mask>
<g mask="url(#mask4_19_5730)">
<path d="M69.0349 9.16663L65.7754 14.3333L70.0379 16.9166L73.2974 11.75L69.0349 9.16663Z" fill="url(#paint4_linear_19_5730)"/>
</g>
<mask id="mask5_19_5730" style="mask-type:alpha" maskUnits="userSpaceOnUse" x="80" y="13" width="4" height="6">
<path fill-rule="evenodd" clip-rule="evenodd" d="M80.8181 14.2512C80.8181 14.2512 80.2331 16.0012 82.6568 18.1679C83.0747 16.4179 83.3085 14.7532 83.3966 13.1711L80.8181 14.2512Z" fill="white"/>
</mask>
<g mask="url(#mask5_19_5730)">
<path d="M80.485 12.2499L79.0642 17.7499L83.2431 18.8332L84.7475 13.4165L80.485 12.2499Z" fill="url(#paint5_linear_19_5730)"/>
</g>
<mask id="mask6_19_5730" style="mask-type:alpha" maskUnits="userSpaceOnUse" x="35" y="19" width="9" height="11">
<path fill-rule="evenodd" clip-rule="evenodd" d="M41.9541 20.1666C40.4033 23.4869 38.3988 26.0716 35.9763 28.0377L39.5349 29.6458C41.4154 27.0156 42.3687 24.5742 43.0425 22.4999L43.4003 21.2408L43.7138 19.9127L41.9541 20.1666Z" fill="white"/>
</mask>
<g mask="url(#mask6_19_5730)">
<path d="M36.6487 20.401L44.0662 19.75L43.7006 29.8802L35.8547 29.5833L36.6487 20.401Z" fill="url(#paint6_linear_19_5730)"/>
</g>
<defs>
<linearGradient id="paint0_linear_19_5730" x1="96.7035" y1="30.1776" x2="96.067" y2="24.2163" gradientUnits="userSpaceOnUse">
<stop stop-color="#66BB6A"/>
<stop offset="1" stop-color="#378F43"/>
</linearGradient>
<linearGradient id="paint1_linear_19_5730" x1="89.6709" y1="17.8802" x2="89.6709" y2="24.0382" gradientUnits="userSpaceOnUse">
<stop stop-color="#66BB6A"/>
<stop offset="1" stop-color="#378F43"/>
</linearGradient>
<linearGradient id="paint2_linear_19_5730" x1="60.1677" y1="29.6155" x2="65.8745" y2="28.1696" gradientUnits="userSpaceOnUse">
<stop stop-color="#66BB6A"/>
<stop offset="1" stop-color="#378F43"/>
</linearGradient>
<linearGradient id="paint3_linear_19_5730" x1="79.452" y1="29.6254" x2="82.8246" y2="24.0028" gradientUnits="userSpaceOnUse">
<stop stop-color="#66BB6A"/>
<stop offset="1" stop-color="#378F43"/>
</linearGradient>
<linearGradient id="paint4_linear_19_5730" x1="69.1015" y1="12.0754" x2="68.1235" y2="13.5384" gradientUnits="userSpaceOnUse">
<stop stop-color="#66BB6A"/>
<stop offset="1" stop-color="#378F43"/>
</linearGradient>
<linearGradient id="paint5_linear_19_5730" x1="81.07" y1="15.1306" x2="80.3796" y2="17.0801" gradientUnits="userSpaceOnUse">
<stop stop-color="#66BB6A"/>
<stop offset="1" stop-color="#378F43"/>
</linearGradient>
<linearGradient id="paint6_linear_19_5730" x1="42.7891" y1="27.6922" x2="42.7891" y2="20.2454" gradientUnits="userSpaceOnUse">
<stop stop-color="#66BB6A"/>
<stop offset="1" stop-color="#378F43"/>
</linearGradient>
</defs>
</svg>
