<svg width="222" height="72" viewBox="0 0 222 72" fill="none" xmlns="http://www.w3.org/2000/svg">
<path fill-rule="evenodd" clip-rule="evenodd" d="M211.421 36.3243H212.235C212.235 36.3243 221.837 36.4865 222 48.8108C222 60.6486 210.119 70.7027 196.122 70.7027C193.843 70.7027 174.963 70.0541 173.499 47.5135C169.755 47.3513 163.408 46.7027 158.037 44.4324C152.666 57.5676 144.365 67.9459 139.32 67.9459C134.274 67.9459 130.043 61.4595 126.625 48.973L126.299 47.6757C119.789 58.7027 110.837 67.7838 106.443 67.7838C101.235 67.7838 94.8871 61.7838 94.8871 56.1081C94.8871 50.4324 96.6774 36.8108 96.6774 36.8108C96.6774 36.8108 91.9575 37.7838 85.1217 38.7568C83.8197 45.2432 76.6584 72 48.6642 72C15.2991 72 0 36 0 36C3.70239 33.7216 8.29728 28.9388 13.4434 23.5822C23.6805 12.9264 36.0991 0 48.0132 0C65.9164 0 72.2639 22.0541 72.2639 22.0541L70.7991 24.4865C70.7991 24.4865 64.9399 17.027 51.4311 17.027C41.1124 17.027 33.297 26.2647 27.6351 32.957C25.7953 35.1316 24.183 37.0374 22.7859 38.2703C22.7859 38.2703 36.9458 60.4865 55.3372 60.4865C65.1026 60.4865 75.6818 52.0541 81.7038 39.2432C71.2874 40.7027 57.6158 42 48.0132 40.8649C48.0132 40.8649 47.5249 40.3784 47.3622 39.8919C47.0367 39.2432 47.0367 38.5946 47.0367 38.5946C81.0528 38.5946 106.606 24.4865 108.884 23.027C109.047 22.8649 109.21 22.8649 109.372 22.8649C111.564 23.392 110.422 30.8435 109.221 38.6745C107.836 47.7065 106.374 57.2432 109.861 57.2432C113.441 57.2432 120.603 46.2162 124.672 39.5676C123.261 32.4324 121.85 25.7297 121.067 22.006C120.675 20.1441 120.44 19.027 120.44 18.973V18.4865L120.765 18.3243C120.928 18.1622 127.927 15.4054 132.321 15.4054C135.576 15.4054 137.529 17.1892 137.529 20.2703C137.529 22.2162 136.553 26.2703 134.762 31.1351C135.87 41.4756 139.565 51.1128 141.347 55.761C141.661 56.5799 141.916 57.2439 142.087 57.7297L142.128 57.6812C143.96 55.5236 149.435 49.0776 152.666 41.5135C148.922 38.5946 147.132 34.5405 147.132 29.6757C147.132 21.5676 151.689 17.3514 156.084 17.3514C159.176 17.3514 162.431 19.4595 162.431 24.1622C162.431 27.5676 161.943 31.2973 160.966 35.3513C163.57 37.7838 167.802 40.3784 173.499 40.5405C174.638 28.8649 180.334 12.1622 191.565 12.1622C203.446 12.1622 205.236 22.0541 205.236 28.0541C205.236 36.3243 197.749 43.4595 186.194 46.2162C186.519 55.6216 189.123 63.8919 196.122 63.8919C200.516 63.8919 204.097 62.1081 206.864 58.7027C211.746 52.8649 212.886 43.4595 211.584 37.1351L211.421 36.3243ZM186.519 38.1079C194.983 34.3782 195.145 27.0809 195.145 26.9188C195.145 22.2161 193.192 19.4593 191.402 19.2971C189.774 19.2971 187.333 28.2161 186.519 38.1079Z" fill="#66BB6A"/>
<path d="M97.4909 18C97.4909 18.3243 97.6537 18.4865 97.9792 18.6487C104.652 19.6216 109.047 17.5135 109.047 6.81083C109.047 -3.24322 98.6302 4.70272 96.6772 6.16218C96.5144 6.32434 96.5144 6.48651 96.5144 6.81083C98.3047 10.7027 97.8165 16.3784 97.4909 18" fill="#66BB6A"/>
<mask id="mask0_19_5730" style="mask-type:alpha" maskUnits="userSpaceOnUse" x="173" y="46" width="18" height="16">
<path fill-rule="evenodd" clip-rule="evenodd" d="M179.846 47.3539C176.591 47.6782 173.499 47.516 173.499 47.516C173.987 54.0025 175.686 58.3758 178.127 61.7812L190.008 60.8083C187.486 57.5245 186.43 52.6089 186.194 46.2162C186.194 46.2162 182.939 47.0296 179.846 47.3539Z" fill="white"/>
</mask>
<g mask="url(#mask0_19_5730)">
<path d="M191.727 61.6217L189.774 44.2704L171.708 46.3785L173.661 63.7299L191.727 61.6217Z" fill="url(#paint0_linear_19_5730)"/>
</g>
<mask id="mask1_19_5730" style="mask-type:alpha" maskUnits="userSpaceOnUse" x="173" y="26" width="15" height="15">
<path d="M186.52 38.1111C184.002 39.6557 176.184 40.7507 173.499 40.5406C173.893 36.903 174.68 31.8773 176.754 26.4325C178.338 26.059 185.544 26.048 187.728 29.1242C187.257 31.6384 187.05 33.1862 186.88 34.5434C186.739 35.7071 186.634 36.7309 186.52 38.1111Z" fill="white"/>
</mask>
<g mask="url(#mask1_19_5730)">
<rect x="173.336" y="26.2626" width="14.3916" height="14.3039" fill="url(#paint1_linear_19_5730)"/>
</g>
<mask id="mask2_19_5730" style="mask-type:alpha" maskUnits="userSpaceOnUse" x="114" y="39" width="13" height="21">
<path fill-rule="evenodd" clip-rule="evenodd" d="M114.665 53.844C115.479 55.79 116.358 58.0488 117.335 59.9948C118.937 58.1515 120.698 56.0864 122.777 53.1029C124.004 51.3428 125.28 49.3164 126.299 47.6755L124.678 39.5598C122.071 43.9749 117.64 50.6831 114.665 53.844Z" fill="white"/>
</mask>
<g mask="url(#mask2_19_5730)">
<path d="M115.72 63.5674L132.484 57.8918L125.16 35.9999L108.396 41.6756L115.72 63.5674Z" fill="url(#paint2_linear_19_5730)"/>
</g>
<mask id="mask3_19_5730" style="mask-type:alpha" maskUnits="userSpaceOnUse" x="145" y="41" width="14" height="19">
<path fill-rule="evenodd" clip-rule="evenodd" d="M145.016 54.1545C146.156 55.7761 148.271 57.8919 149.736 59.5135C150.929 57.8625 152.208 55.9412 153.434 53.7997C155.197 50.7217 156.823 47.3416 158.037 44.4324C158.037 44.4324 156.435 43.8736 155.125 43.1198C153.815 42.366 152.671 41.5172 152.671 41.5172C150.37 46.7748 147.381 51.1266 145.016 54.1545Z" fill="white"/>
</mask>
<g mask="url(#mask3_19_5730)">
<path d="M154.944 65.0272L165.849 45.7299L148.271 35.838L137.366 54.9732L154.944 65.0272Z" fill="url(#paint3_linear_19_5730)"/>
</g>
<mask id="mask4_19_5730" style="mask-type:alpha" maskUnits="userSpaceOnUse" x="133" y="19" width="5" height="13">
<path fill-rule="evenodd" clip-rule="evenodd" d="M133.297 21.0811C133.297 21.0811 133.46 24 134.762 31.1351C136.552 26.1081 137.514 22.2479 137.514 20.3019C137.514 20.1398 137.514 19.9776 137.514 19.8154L133.297 21.0811Z" fill="white"/>
</mask>
<g mask="url(#mask4_19_5730)">
<path d="M134.436 17.8379L128.089 27.8919L136.389 32.919L142.737 22.8649L134.436 17.8379Z" fill="url(#paint4_linear_19_5730)"/>
</g>
<mask id="mask5_19_5730" style="mask-type:alpha" maskUnits="userSpaceOnUse" x="157" y="25" width="6" height="11">
<path fill-rule="evenodd" clip-rule="evenodd" d="M157.383 27.7321C157.383 27.7321 156.243 31.1375 160.963 35.3538C161.777 31.9484 162.232 28.7089 162.404 25.6304L157.383 27.7321Z" fill="white"/>
</mask>
<g mask="url(#mask5_19_5730)">
<path d="M156.734 23.8376L153.967 34.5403L162.105 36.6485L165.035 26.1079L156.734 23.8376Z" fill="url(#paint5_linear_19_5730)"/>
</g>
<mask id="mask6_19_5730" style="mask-type:alpha" maskUnits="userSpaceOnUse" x="70" y="38" width="16" height="20">
<path fill-rule="evenodd" clip-rule="evenodd" d="M81.7 39.2431C78.6801 45.7043 74.7765 50.7338 70.0591 54.5598L76.9889 57.689C80.651 52.5708 82.5074 47.82 83.8196 43.7836L84.5164 41.3335L85.1268 38.749L81.7 39.2431Z" fill="white"/>
</mask>
<g mask="url(#mask6_19_5730)">
<path d="M71.3684 39.6993L85.8131 38.4324L85.101 58.1452L69.8223 57.5675L71.3684 39.6993Z" fill="url(#paint6_linear_19_5730)"/>
</g>
<defs>
<linearGradient id="paint0_linear_19_5730" x1="188.317" y1="58.724" x2="187.079" y2="47.1236" gradientUnits="userSpaceOnUse">
<stop stop-color="#66BB6A"/>
<stop offset="1" stop-color="#378F43"/>
</linearGradient>
<linearGradient id="paint1_linear_19_5730" x1="174.622" y1="34.7938" x2="174.622" y2="46.777" gradientUnits="userSpaceOnUse">
<stop stop-color="#66BB6A"/>
<stop offset="1" stop-color="#378F43"/>
</linearGradient>
<linearGradient id="paint2_linear_19_5730" x1="117.169" y1="57.6301" x2="128.281" y2="54.8125" gradientUnits="userSpaceOnUse">
<stop stop-color="#66BB6A"/>
<stop offset="1" stop-color="#378F43"/>
</linearGradient>
<linearGradient id="paint3_linear_19_5730" x1="154.722" y1="57.6494" x2="161.283" y2="46.704" gradientUnits="userSpaceOnUse">
<stop stop-color="#66BB6A"/>
<stop offset="1" stop-color="#378F43"/>
</linearGradient>
<linearGradient id="paint4_linear_19_5730" x1="134.566" y1="23.4983" x2="132.663" y2="26.3465" gradientUnits="userSpaceOnUse">
<stop stop-color="#66BB6A"/>
<stop offset="1" stop-color="#378F43"/>
</linearGradient>
<linearGradient id="paint5_linear_19_5730" x1="157.873" y1="29.4434" x2="156.53" y2="33.2376" gradientUnits="userSpaceOnUse">
<stop stop-color="#66BB6A"/>
<stop offset="1" stop-color="#378F43"/>
</linearGradient>
<linearGradient id="paint6_linear_19_5730" x1="83.3261" y1="53.8874" x2="83.3261" y2="39.3964" gradientUnits="userSpaceOnUse">
<stop stop-color="#66BB6A"/>
<stop offset="1" stop-color="#378F43"/>
</linearGradient>
</defs>
</svg>
