<svg width="11" height="13" viewBox="0 0 11 13" fill="none" xmlns="http://www.w3.org/2000/svg">
<path d="M9.375 5.75H8.8125V4.0625C8.8125 2.11719 7.19531 0.5 5.25 0.5C3.28125 0.5 1.6875 2.11719 1.6875 4.0625V5.75H1.125C0.492188 5.75 0 6.26562 0 6.875V11.375C0 12.0078 0.492188 12.5 1.125 12.5H9.375C9.98438 12.5 10.5 12.0078 10.5 11.375V6.875C10.5 6.26562 9.98438 5.75 9.375 5.75ZM6.9375 5.75H3.5625V4.0625C3.5625 3.14844 4.3125 2.375 5.25 2.375C6.16406 2.375 6.9375 3.14844 6.9375 4.0625V5.75Z" fill="#77D006"/>
</svg>
