<svg width="19" height="14" viewBox="0 0 19 14" fill="none" xmlns="http://www.w3.org/2000/svg">
<path d="M18.1682 4.57419C17.3753 5.19477 16.3754 5.95327 12.8588 8.50456C12.1693 9.02171 10.8936 10.1594 9.68693 10.1594C8.44576 10.1594 7.20459 9.02171 6.48057 8.50456C2.96393 5.95327 1.9641 5.19477 1.17113 4.57419C1.03322 4.47076 0.86084 4.57419 0.86084 4.74657V11.7799C0.86084 12.7107 1.58485 13.4348 2.51573 13.4348H16.8581C17.7545 13.4348 18.513 12.7107 18.513 11.7799V4.74657C18.513 4.57419 18.3062 4.47076 18.1682 4.57419ZM9.68693 9.02171C10.4799 9.05619 11.6176 8.02188 12.2037 7.60816C16.7892 4.29838 17.1339 3.98808 18.1682 3.16064C18.3751 3.02273 18.513 2.78139 18.513 2.50558V1.85052C18.513 0.954116 17.7545 0.195624 16.8581 0.195624H2.51573C1.58485 0.195624 0.86084 0.954116 0.86084 1.85052V2.50558C0.86084 2.78139 0.964271 3.02273 1.17113 3.16064C2.20544 3.98808 2.55021 4.29838 7.13564 7.60816C7.72174 8.02188 8.85948 9.05619 9.68693 9.02171Z" fill="#989898"/>
</svg>
