<svg width="35" height="35" viewBox="0 0 35 35" fill="none" xmlns="http://www.w3.org/2000/svg">
<path opacity="0.4" d="M24.7917 26.877H18.9584L12.4688 31.1937C11.5063 31.8354 10.2084 31.15 10.2084 29.9833V26.877C5.83341 26.877 2.91675 23.9604 2.91675 19.5854V10.8354C2.91675 6.46037 5.83341 3.5437 10.2084 3.5437H24.7917C29.1667 3.5437 32.0834 6.46037 32.0834 10.8354V19.5854C32.0834 23.9604 29.1667 26.877 24.7917 26.877Z" fill="#A6A6A6"/>
<path d="M17.5001 17.6604C16.9022 17.6604 16.4064 17.1646 16.4064 16.5667V16.2605C16.4064 14.5688 17.6459 13.7375 18.1126 13.4167C18.6522 13.0521 18.8272 12.8042 18.8272 12.425C18.8272 11.6959 18.2293 11.0979 17.5001 11.0979C16.771 11.0979 16.1731 11.6959 16.1731 12.425C16.1731 13.023 15.6773 13.5188 15.0793 13.5188C14.4814 13.5188 13.9856 13.023 13.9856 12.425C13.9856 10.4855 15.5606 8.9104 17.5001 8.9104C19.4397 8.9104 21.0147 10.4855 21.0147 12.425C21.0147 14.0875 19.7897 14.9188 19.3377 15.225C18.7689 15.6042 18.5939 15.8521 18.5939 16.2605V16.5667C18.5939 17.1792 18.0981 17.6604 17.5001 17.6604Z" fill="#A6A6A6"/>
<path d="M17.5 21.2916C16.8875 21.2916 16.4062 20.7958 16.4062 20.1979C16.4062 19.6 16.9021 19.1041 17.5 19.1041C18.0979 19.1041 18.5938 19.6 18.5938 20.1979C18.5938 20.7958 18.1125 21.2916 17.5 21.2916Z" fill="#A6A6A6"/>
</svg>
