<svg width="17" height="18" viewBox="0 0 17 18" fill="none" xmlns="http://www.w3.org/2000/svg">
<path d="M8.66814 9.0326C11.0815 9.0326 13.0812 7.06741 13.0812 4.61955C13.0812 2.20617 11.0815 0.20651 8.66814 0.20651C6.22028 0.20651 4.25509 2.20617 4.25509 4.61955C4.25509 7.06741 6.22028 9.0326 8.66814 9.0326ZM11.7366 10.1359H11.1505C10.392 10.5151 9.56454 10.6875 8.66814 10.6875C7.77174 10.6875 6.90982 10.5151 6.15132 10.1359H5.56522C3.01393 10.1359 0.945312 12.2389 0.945312 14.7902V16.2038C0.945312 17.1347 1.66933 17.8587 2.6002 17.8587H14.7361C15.6325 17.8587 16.391 17.1347 16.391 16.2038V14.7902C16.391 12.2389 14.2879 10.1359 11.7366 10.1359Z" fill="#8D8E8E"/>
</svg>
